<svg width="66" height="66" viewBox="0 0 66 66" fill="none" xmlns="http://www.w3.org/2000/svg">
<path d="M55.6875 4.125H10.3125C6.89524 4.125 4.125 6.89524 4.125 10.3125V55.6875C4.125 59.1048 6.89524 61.875 10.3125 61.875H55.6875C59.1048 61.875 61.875 59.1048 61.875 55.6875V10.3125C61.875 6.89524 59.1048 4.125 55.6875 4.125Z" fill="#FF6F00"/>
<path d="M45.375 30.9375H20.625C18.984 30.9375 17.4102 30.2856 16.2498 29.1252C15.0894 27.9648 14.4375 26.391 14.4375 24.75V20.625C14.4375 18.984 15.0894 17.4102 16.2498 16.2498C17.4102 15.0894 18.984 14.4375 20.625 14.4375H45.375C47.016 14.4375 48.5898 15.0894 49.7502 16.2498C50.9106 17.4102 51.5625 18.984 51.5625 20.625V24.75C51.5625 26.391 50.9106 27.9648 49.7502 29.1252C48.5898 30.2856 47.016 30.9375 45.375 30.9375ZM18.5625 20.625V24.75C18.5625 25.297 18.7798 25.8216 19.1666 26.2084C19.5534 26.5952 20.078 26.8125 20.625 26.8125H45.375C45.922 26.8125 46.4466 26.5952 46.8334 26.2084C47.2202 25.8216 47.4375 25.297 47.4375 24.75V20.625C47.4375 20.078 47.2202 19.5534 46.8334 19.1666C46.4466 18.7798 45.922 18.5625 45.375 18.5625H20.625C20.078 18.5625 19.5534 18.7798 19.1666 19.1666C18.7798 19.5534 18.5625 20.078 18.5625 20.625Z" fill="#1A237E"/>
<path d="M28.8752 51.171C28.6037 51.1726 28.3347 51.1206 28.0834 51.0179C27.8321 50.9153 27.6035 50.7641 27.4108 50.5729L15.0358 38.1979C14.6517 37.8115 14.436 37.2887 14.436 36.7438C14.436 36.199 14.6517 35.6762 15.0358 35.2898C15.2275 35.0965 15.4556 34.943 15.707 34.8383C15.9583 34.7336 16.2279 34.6797 16.5002 34.6797C16.7724 34.6797 17.042 34.7336 17.2934 34.8383C17.5447 34.943 17.7728 35.0965 17.9645 35.2898L30.3395 47.6648C30.7237 48.0512 30.9393 48.574 30.9393 49.1188C30.9393 49.6637 30.7237 50.1865 30.3395 50.5729C30.1468 50.7641 29.9183 50.9153 29.667 51.0179C29.4157 51.1206 29.1466 51.1726 28.8752 51.171Z" fill="#1A237E"/>
<path d="M16.4998 51.171C16.0943 51.1693 15.6984 51.0482 15.3614 50.8228C15.0244 50.5973 14.7614 50.2775 14.6051 49.9034C14.4489 49.5293 14.4063 49.1174 14.4829 48.7192C14.5594 48.3211 14.7516 47.9543 15.0354 47.6648L27.4104 35.2898C27.6021 35.0965 27.8302 34.943 28.0816 34.8383C28.3329 34.7336 28.6025 34.6797 28.8748 34.6797C29.147 34.6797 29.4166 34.7336 29.668 34.8383C29.9193 34.943 30.1474 35.0965 30.3391 35.2898C30.7233 35.6762 30.9389 36.199 30.9389 36.7438C30.9389 37.2887 30.7233 37.8115 30.3391 38.1979L17.9641 50.5729C17.7714 50.7641 17.5429 50.9153 17.2916 51.0179C17.0403 51.1206 16.7712 51.1726 16.4998 51.171Z" fill="#1A237E"/>
<path d="M49.5 45.375H37.125C36.578 45.375 36.0534 45.1577 35.6666 44.7709C35.2798 44.3841 35.0625 43.8595 35.0625 43.3125C35.0625 42.7655 35.2798 42.2409 35.6666 41.8541C36.0534 41.4673 36.578 41.25 37.125 41.25H49.5C50.047 41.25 50.5716 41.4673 50.9584 41.8541C51.3452 42.2409 51.5625 42.7655 51.5625 43.3125C51.5625 43.8595 51.3452 44.3841 50.9584 44.7709C50.5716 45.1577 50.047 45.375 49.5 45.375Z" fill="#1A237E"/>
<path d="M43.313 51.1702C42.7669 51.1626 42.2439 50.9489 41.8486 50.572C41.6576 50.3784 41.51 50.1464 41.4155 49.8914C41.3064 49.6445 41.25 49.3776 41.25 49.1077C41.25 48.8377 41.3064 48.5708 41.4155 48.3239C41.5199 48.074 41.6664 47.8438 41.8486 47.6433C42.0403 47.45 42.2685 47.2965 42.5198 47.1918C42.7711 47.0871 43.0407 47.0332 43.313 47.0332C43.5853 47.0332 43.8548 47.0871 44.1062 47.1918C44.3575 47.2965 44.5856 47.45 44.7774 47.6433C44.9651 47.8394 45.1123 48.0707 45.2105 48.3239C45.3196 48.5708 45.376 48.8377 45.376 49.1077C45.376 49.3776 45.3196 49.6445 45.2105 49.8914C45.116 50.1464 44.9683 50.3784 44.7774 50.572C44.3821 50.9489 43.8591 51.1626 43.313 51.1702Z" fill="#1A237E"/>
<path d="M43.3125 38.7954C42.7665 38.7878 42.2434 38.5741 41.8482 38.1972C41.657 38.0045 41.5058 37.7759 41.4031 37.5247C41.3005 37.2734 41.2485 37.0043 41.25 36.7329C41.2533 36.4633 41.3093 36.1971 41.415 35.9491C41.597 35.5071 41.9269 35.142 42.3482 34.9163C42.7696 34.6906 43.2562 34.6182 43.725 34.7116C43.8542 34.7342 43.9794 34.7759 44.0963 34.8354C44.2277 34.8805 44.3526 34.9429 44.4675 35.021L44.7769 35.2685C44.9647 35.4646 45.1119 35.6959 45.21 35.9491C45.3157 36.1971 45.3718 36.4633 45.375 36.7329C45.3766 37.0043 45.3246 37.2734 45.2219 37.5247C45.1193 37.7759 44.9681 38.0045 44.7769 38.1972L44.4675 38.4447L44.0963 38.6304C43.9794 38.6898 43.8542 38.7315 43.725 38.7541L43.3125 38.7954Z" fill="#1A237E"/>
<path d="M10.3125 4.125C8.67147 4.125 7.09766 4.7769 5.93728 5.93728C4.7769 7.09766 4.125 8.67147 4.125 10.3125V55.6875C4.125 57.3285 4.7769 58.9023 5.93728 60.0627C7.09766 61.2231 8.67147 61.875 10.3125 61.875H32.8144V4.125H10.3125Z" fill="#F9A825"/>
<path d="M20.625 26.8125C20.078 26.8125 19.5534 26.5952 19.1666 26.2084C18.7798 25.8216 18.5625 25.297 18.5625 24.75V20.625C18.5625 20.078 18.7798 19.5534 19.1666 19.1666C19.5534 18.7798 20.078 18.5625 20.625 18.5625H32.8144V14.4375H20.625C18.984 14.4375 17.4102 15.0894 16.2498 16.2498C15.0894 17.4102 14.4375 18.984 14.4375 20.625V24.75C14.4375 26.391 15.0894 27.9648 16.2498 29.1252C17.4102 30.2856 18.984 30.9375 20.625 30.9375H32.8144V26.8125H20.625Z" fill="#303F9F"/>
<path d="M17.9645 35.6613C17.5761 35.2729 17.0494 35.0547 16.5001 35.0547C15.9509 35.0547 15.4241 35.2729 15.0358 35.6613C14.6474 36.0496 14.4292 36.5764 14.4292 37.1256C14.4292 37.6749 14.6474 38.2016 15.0358 38.59L27.4108 50.965C27.6025 51.1583 27.8306 51.3118 28.0819 51.4165C28.3333 51.5212 28.6029 51.5751 28.8751 51.5751C29.1474 51.5751 29.417 51.5212 29.6683 51.4165C29.9197 51.3118 30.1478 51.1583 30.3395 50.965C30.5328 50.7733 30.6863 50.5451 30.791 50.2938C30.8957 50.0425 30.9496 49.7729 30.9496 49.5006C30.9496 49.2284 30.8957 48.9588 30.791 48.7074C30.6863 48.4561 30.5328 48.228 30.3395 48.0363L17.9645 35.6613Z" fill="#303F9F"/>
<path d="M27.4109 35.6613L15.0359 48.0363C14.8426 48.228 14.6891 48.4561 14.5844 48.7074C14.4797 48.9588 14.4258 49.2284 14.4258 49.5006C14.4258 49.7729 14.4797 50.0425 14.5844 50.2938C14.6891 50.5451 14.8426 50.7733 15.0359 50.965C15.2276 51.1583 15.4557 51.3118 15.7071 51.4165C15.9584 51.5212 16.228 51.5751 16.5002 51.5751C16.7725 51.5751 17.0421 51.5212 17.2934 51.4165C17.5448 51.3118 17.7729 51.1583 17.9646 50.965L30.3396 38.59C30.5319 38.3977 30.6845 38.1694 30.7885 37.9181C30.8926 37.6669 30.9462 37.3976 30.9462 37.1256C30.9462 36.8537 30.8926 36.5844 30.7885 36.3331C30.6845 36.0819 30.5319 35.8536 30.3396 35.6613C30.1473 35.4689 29.919 35.3164 29.6678 35.2123C29.4165 35.1083 29.1472 35.0547 28.8752 35.0547C28.6033 35.0547 28.334 35.1083 28.0827 35.2123C27.8315 35.3164 27.6032 35.4689 27.4109 35.6613Z" fill="#303F9F"/>
</svg>
