<svg width="66" height="66" viewBox="0 0 66 66" fill="none" xmlns="http://www.w3.org/2000/svg">
<path d="M55.6875 9.28125H10.3125C6.89524 9.28125 4.125 12.0515 4.125 15.4688V50.5312C4.125 53.9485 6.89524 56.7188 10.3125 56.7188H55.6875C59.1048 56.7188 61.875 53.9485 61.875 50.5312V15.4688C61.875 12.0515 59.1048 9.28125 55.6875 9.28125Z" fill="#1B5E20"/>
<path d="M27.0395 31.2065C27.923 30.3485 28.5304 29.2465 28.7839 28.0413C29.0374 26.8362 28.9255 25.5829 28.4626 24.4417C27.9997 23.3005 27.2068 22.3234 26.1853 21.6355C25.1639 20.9476 23.9604 20.5801 22.7289 20.5801C21.4974 20.5801 20.2939 20.9476 19.2725 21.6355C18.251 22.3234 17.4581 23.3005 16.9952 24.4417C16.5323 25.5829 16.4204 26.8362 16.6739 28.0413C16.9275 29.2465 17.5348 30.3485 18.4183 31.2065C13.8602 32.4852 10.457 37.394 10.457 43.2515C10.457 43.7985 10.6743 44.3231 11.0611 44.7099C11.4479 45.0967 11.9725 45.314 12.5195 45.314C13.0665 45.314 13.5911 45.0967 13.9779 44.7099C14.3647 44.3231 14.582 43.7985 14.582 43.2515C14.582 38.6933 17.3664 35.0015 20.7695 35.0015H24.8945C28.2977 35.0015 31.082 38.6933 31.082 43.2515C31.082 43.7985 31.2993 44.3231 31.6861 44.7099C32.0729 45.0967 32.5975 45.314 33.1445 45.314C33.6915 45.314 34.2161 45.0967 34.6029 44.7099C34.9897 44.3231 35.207 43.7985 35.207 43.2515C35.207 37.3733 31.7008 32.4027 27.0395 31.2065ZM22.6877 24.7508C23.0956 24.7508 23.4943 24.8718 23.8335 25.0984C24.1727 25.3251 24.4371 25.6472 24.5932 26.0241C24.7493 26.4009 24.7901 26.8156 24.7105 27.2157C24.6309 27.6158 24.4345 27.9833 24.1461 28.2717C23.8576 28.5602 23.4901 28.7566 23.09 28.8362C22.6899 28.9158 22.2752 28.8749 21.8984 28.7188C21.5215 28.5627 21.1994 28.2984 20.9727 27.9592C20.7461 27.62 20.6252 27.2213 20.6252 26.8133C20.6252 26.2663 20.8425 25.7417 21.2292 25.3549C21.616 24.9681 22.1406 24.7508 22.6877 24.7508Z" fill="#F57F17"/>
<path d="M61.875 30.9994V35.1244H45.3956L45.375 56.7188H41.25L41.2706 35.1038L41.25 9.28125H45.375L45.3956 30.9994H61.875Z" fill="#EEEEEE"/>
<path d="M10.3125 9.28125C8.67147 9.28125 7.09766 9.93315 5.93728 11.0935C4.7769 12.2539 4.125 13.8277 4.125 15.4688V50.5312C4.125 52.1723 4.7769 53.7461 5.93728 54.9065C7.09766 56.0669 8.67147 56.7188 10.3125 56.7188H33V9.28125H10.3125Z" fill="#388E3C"/>
<path d="M27.0395 31.2065C27.923 30.3485 28.5304 29.2465 28.7839 28.0413C29.0374 26.8362 28.9255 25.5829 28.4626 24.4417C27.9997 23.3005 27.2068 22.3234 26.1853 21.6355C25.1639 20.9476 23.9604 20.5801 22.7289 20.5801C21.4974 20.5801 20.2939 20.9476 19.2725 21.6355C18.251 22.3234 17.4581 23.3005 16.9952 24.4417C16.5323 25.5829 16.4204 26.8362 16.6739 28.0413C16.9275 29.2465 17.5348 30.3485 18.4183 31.2065C13.8602 32.4852 10.457 37.394 10.457 43.2515C10.457 43.7985 10.6743 44.3231 11.0611 44.7099C11.4479 45.0967 11.9725 45.314 12.5195 45.314C13.0665 45.314 13.5911 45.0967 13.9779 44.7099C14.3647 44.3231 14.582 43.7985 14.582 43.2515C14.582 38.6933 17.3664 35.0015 20.7695 35.0015H24.8945C28.2977 35.0015 31.082 38.6933 31.082 43.2515C31.0647 43.7849 31.2549 44.3044 31.6126 44.7005C31.9703 45.0967 32.4677 45.3388 33.0002 45.3758V35.5377C31.6144 33.4092 29.492 31.8669 27.0395 31.2065ZM22.6877 28.8758C22.2797 28.8758 21.881 28.7549 21.5418 28.5282C21.2026 28.3016 20.9383 27.9795 20.7822 27.6026C20.626 27.2257 20.5852 26.811 20.6648 26.411C20.7444 26.0109 20.9408 25.6434 21.2292 25.3549C21.5177 25.0665 21.8852 24.87 22.2853 24.7905C22.6854 24.7109 23.1001 24.7517 23.4769 24.9078C23.8538 25.0639 24.1759 25.3283 24.4026 25.6675C24.6292 26.0066 24.7502 26.4054 24.7502 26.8133C24.7502 27.3603 24.5329 27.8849 24.1461 28.2717C23.7593 28.6585 23.2347 28.8758 22.6877 28.8758Z" fill="#F9A825"/>
</svg>
