<svg width="66" height="66" viewBox="0 0 66 66" fill="none" xmlns="http://www.w3.org/2000/svg">
<path d="M61.875 33C61.875 33.7013 61.875 34.3819 61.875 35.0625C61.3938 42.0149 58.4145 48.5588 53.4866 53.4866C48.5588 58.4145 42.0149 61.3938 35.0625 61.875C34.3819 61.875 33.7013 61.875 33 61.875C32.2987 61.875 31.6181 61.875 30.9375 61.875C23.9851 61.3938 17.4412 58.4145 12.5134 53.4866C7.58553 48.5588 4.60616 42.0149 4.125 35.0625C4.125 34.3819 4.125 33.7013 4.125 33C4.125 32.2987 4.125 31.6181 4.125 30.9375C4.60616 23.9851 7.58553 17.4412 12.5134 12.5134C17.4412 7.58553 23.9851 4.60616 30.9375 4.125C31.6181 4.125 32.2987 4.125 33 4.125C33.7013 4.125 34.3819 4.125 35.0625 4.125C42.0149 4.60616 48.5588 7.58553 53.4866 12.5134C58.4145 17.4412 61.3938 23.9851 61.875 30.9375C61.875 31.6181 61.875 32.2987 61.875 33Z" fill="#FF8F00"/>
<path d="M35.0625 57.75V61.875C34.3819 61.875 33.7013 61.875 33 61.875C32.2988 61.875 31.6181 61.875 30.9375 61.875V57.75C30.9375 57.203 31.1548 56.6784 31.5416 56.2916C31.9284 55.9048 32.453 55.6875 33 55.6875C33.547 55.6875 34.0716 55.9048 34.4584 56.2916C34.8452 56.6784 35.0625 57.203 35.0625 57.75Z" fill="#0D47A1"/>
<path d="M61.875 33C61.875 33.7013 61.875 34.3819 61.875 35.0625H57.75C57.203 35.0625 56.6784 34.8452 56.2916 34.4584C55.9048 34.0716 55.6875 33.547 55.6875 33C55.6875 32.453 55.9048 31.9284 56.2916 31.5416C56.6784 31.1548 57.203 30.9375 57.75 30.9375H61.875C61.875 31.6181 61.875 32.2988 61.875 33Z" fill="#0D47A1"/>
<path d="M10.3125 33C10.3125 33.547 10.0952 34.0716 9.70841 34.4584C9.32161 34.8452 8.79701 35.0625 8.25 35.0625H4.125C4.125 34.3819 4.125 33.7013 4.125 33C4.125 32.2988 4.125 31.6181 4.125 30.9375H8.25C8.79701 30.9375 9.32161 31.1548 9.70841 31.5416C10.0952 31.9284 10.3125 32.453 10.3125 33Z" fill="#304046"/>
<path d="M35.0625 4.125V8.25C35.0625 8.79701 34.8452 9.32161 34.4584 9.70841C34.0716 10.0952 33.547 10.3125 33 10.3125C32.453 10.3125 31.9284 10.0952 31.5416 9.70841C31.1548 9.32161 30.9375 8.79701 30.9375 8.25V4.125C31.6181 4.125 32.2988 4.125 33 4.125C33.7013 4.125 34.3819 4.125 35.0625 4.125Z" fill="#0D47A1"/>
<path d="M33.0001 35.0626C32.6059 35.0626 32.2198 34.9496 31.8878 34.737C31.5558 34.5244 31.2916 34.2211 31.1267 33.863C30.9617 33.5049 30.9029 33.107 30.9571 32.7164C31.0113 32.3259 31.1764 31.9591 31.4326 31.6595L43.8076 17.222C43.9837 17.0161 44.1986 16.847 44.44 16.7242C44.6814 16.6014 44.9447 16.5273 45.2147 16.5062C45.4848 16.4852 45.7563 16.5175 46.0139 16.6014C46.2714 16.6853 46.5099 16.819 46.7158 16.9951C46.9216 17.1712 47.0908 17.386 47.2136 17.6275C47.3364 17.8689 47.4104 18.1321 47.4315 18.4022C47.4526 18.6722 47.4202 18.9438 47.3364 19.2013C47.2525 19.4589 47.1187 19.6974 46.9426 19.9032L34.5676 34.3407C34.374 34.5671 34.1336 34.7489 33.863 34.8735C33.5924 34.9981 33.298 35.0626 33.0001 35.0626Z" fill="#0D47A1"/>
<path d="M33 35.0625H22.6875C22.1405 35.0625 21.6159 34.8452 21.2291 34.4584C20.8423 34.0716 20.625 33.547 20.625 33C20.625 32.453 20.8423 31.9284 21.2291 31.5416C21.6159 31.1548 22.1405 30.9375 22.6875 30.9375H33C33.547 30.9375 34.0716 31.1548 34.4584 31.5416C34.8452 31.9284 35.0625 32.453 35.0625 33C35.0625 33.547 34.8452 34.0716 34.4584 34.4584C34.0716 34.8452 33.547 35.0625 33 35.0625Z" fill="#0D47A1"/>
<path d="M30.9375 4.125C23.9851 4.60616 17.4413 7.58553 12.5134 12.5134C7.58553 17.4413 4.60616 23.9851 4.125 30.9375C4.125 31.6181 4.125 32.2987 4.125 33C4.125 33.7013 4.125 34.3819 4.125 35.0625C4.60616 42.0149 7.58553 48.5588 12.5134 53.4866C17.4413 58.4145 23.9851 61.3938 30.9375 61.875C31.6181 61.875 32.2987 61.875 33 61.875V4.125C32.2987 4.125 31.6181 4.125 30.9375 4.125Z" fill="#FFB300"/>
<path d="M30.9375 57.75V61.875C31.6181 61.875 32.2988 61.875 33 61.875V55.6875C32.453 55.6875 31.9284 55.9048 31.5416 56.2916C31.1548 56.6784 30.9375 57.203 30.9375 57.75Z" fill="#1565C0"/>
<path d="M10.3125 33C10.3125 33.547 10.0952 34.0716 9.70841 34.4584C9.32161 34.8452 8.79701 35.0625 8.25 35.0625H4.125C4.125 34.3819 4.125 33.7013 4.125 33C4.125 32.2988 4.125 31.6181 4.125 30.9375H8.25C8.79701 30.9375 9.32161 31.1548 9.70841 31.5416C10.0952 31.9284 10.3125 32.453 10.3125 33Z" fill="#1565C0"/>
<path d="M30.9375 4.125V8.25C30.9375 8.79701 31.1548 9.32161 31.5416 9.70841C31.9284 10.0952 32.453 10.3125 33 10.3125V4.125C32.2988 4.125 31.6181 4.125 30.9375 4.125Z" fill="#1565C0"/>
<path d="M31.4326 31.6598C31.1764 31.9595 31.0113 32.3263 30.9571 32.7168C30.9029 33.1073 30.9617 33.5052 31.1267 33.8633C31.2916 34.2214 31.5558 34.5248 31.8878 34.7374C32.2198 34.95 32.6059 35.063 33.0001 35.063V29.8242L31.4326 31.6598Z" fill="#1565C0"/>
<path d="M22.6875 30.9375C22.1405 30.9375 21.6159 31.1548 21.2291 31.5416C20.8423 31.9284 20.625 32.453 20.625 33C20.625 33.547 20.8423 34.0716 21.2291 34.4584C21.6159 34.8452 22.1405 35.0625 22.6875 35.0625H33V30.9375H22.6875Z" fill="#1565C0"/>
</svg>
