<svg width="66" height="66" viewBox="0 0 66 66" fill="none" xmlns="http://www.w3.org/2000/svg">
<path d="M55.5625 0H10.1875C6.77024 0 4 2.77024 4 6.1875V35.0625C4 38.4798 6.77024 41.25 10.1875 41.25H55.5625C58.9798 41.25 61.75 38.4798 61.75 35.0625V6.1875C61.75 2.77024 58.9798 0 55.5625 0Z" fill="#47BEF1"/>
<path d="M28.9356 18.8725C29.8191 18.0145 30.4265 16.9125 30.68 15.7074C30.9335 14.5022 30.8216 13.2489 30.3587 12.1077C29.8958 10.9665 29.1029 9.98944 28.0814 9.30151C27.06 8.61358 25.8565 8.24609 24.625 8.24609C23.3935 8.24609 22.19 8.61358 21.1686 9.30151C20.1471 9.98944 19.3542 10.9665 18.8913 12.1077C18.4284 13.2489 18.3165 14.5022 18.57 15.7074C18.8235 16.9125 19.4309 18.0145 20.3144 18.8725C15.715 20.11 12.25 25.0394 12.25 30.9381C12.25 31.4851 12.4673 32.0097 12.8541 32.3965C13.2409 32.7833 13.7655 33.0006 14.3125 33.0006C14.8595 33.0006 15.3841 32.7833 15.7709 32.3965C16.1577 32.0097 16.375 31.4851 16.375 30.9381C16.375 26.38 19.1594 22.6881 22.5625 22.6881H26.6875C30.0906 22.6881 32.875 26.38 32.875 30.9381C32.875 31.4851 33.0923 32.0097 33.4791 32.3965C33.8659 32.7833 34.3905 33.0006 34.9375 33.0006C35.4845 33.0006 36.0091 32.7833 36.3959 32.3965C36.7827 32.0097 37 31.4851 37 30.9381C37 25.0394 33.535 20.11 28.9356 18.8725ZM24.625 12.3756C25.0329 12.3756 25.4317 12.4966 25.7709 12.7232C26.11 12.9498 26.3744 13.2719 26.5305 13.6488C26.6866 14.0257 26.7275 14.4404 26.6479 14.8405C26.5683 15.2406 26.3719 15.6081 26.0834 15.8965C25.795 16.185 25.4275 16.3814 25.0274 16.461C24.6273 16.5406 24.2126 16.4997 23.8357 16.3436C23.4588 16.1875 23.1367 15.9231 22.9101 15.584C22.6835 15.2448 22.5625 14.846 22.5625 14.4381C22.5625 13.8911 22.7798 13.3665 23.1666 12.9797C23.5534 12.5929 24.078 12.3756 24.625 12.3756Z" fill="#E64A19"/>
<path d="M51.4375 12.375H45.25C44.703 12.375 44.1784 12.1577 43.7916 11.7709C43.4048 11.3841 43.1875 10.8595 43.1875 10.3125C43.1875 9.76549 43.4048 9.24089 43.7916 8.85409C44.1784 8.4673 44.703 8.25 45.25 8.25H51.4375C51.9845 8.25 52.5091 8.4673 52.8959 8.85409C53.2827 9.24089 53.5 9.76549 53.5 10.3125C53.5 10.8595 53.2827 11.3841 52.8959 11.7709C52.5091 12.1577 51.9845 12.375 51.4375 12.375Z" fill="#E0E0E0"/>
<path d="M51.4375 20.625H39.0625C38.5155 20.625 37.9909 20.4077 37.6041 20.0209C37.2173 19.6341 37 19.1095 37 18.5625C37 18.0155 37.2173 17.4909 37.6041 17.1041C37.9909 16.7173 38.5155 16.5 39.0625 16.5H51.4375C51.9845 16.5 52.5091 16.7173 52.8959 17.1041C53.2827 17.4909 53.5 18.0155 53.5 18.5625C53.5 19.1095 53.2827 19.6341 52.8959 20.0209C52.5091 20.4077 51.9845 20.625 51.4375 20.625Z" fill="#E0E0E0"/>
<path d="M51.4375 28.875H45.25C44.703 28.875 44.1784 28.6577 43.7916 28.2709C43.4048 27.8841 43.1875 27.3595 43.1875 26.8125C43.1875 26.2655 43.4048 25.7409 43.7916 25.3541C44.1784 24.9673 44.703 24.75 45.25 24.75H51.4375C51.9845 24.75 52.5091 24.9673 52.8959 25.3541C53.2827 25.7409 53.5 26.2655 53.5 26.8125C53.5 27.3595 53.2827 27.8841 52.8959 28.2709C52.5091 28.6577 51.9845 28.875 51.4375 28.875Z" fill="#E0E0E0"/>
<path d="M55.5625 45.375H10.1875C8.54647 45.375 6.97266 46.0269 5.81228 47.1873C4.6519 48.3477 4 49.9215 4 51.5625C4 53.2035 4.6519 54.7773 5.81228 55.9377C6.97266 57.0981 8.54647 57.75 10.1875 57.75H55.5625C57.2035 57.75 58.7773 57.0981 59.9377 55.9377C61.0981 54.7773 61.75 53.2035 61.75 51.5625C61.75 49.9215 61.0981 48.3477 59.9377 47.1873C58.7773 46.0269 57.2035 45.375 55.5625 45.375Z" fill="#37474F"/>
<path d="M10.1875 0C8.54647 0 6.97266 0.651896 5.81228 1.81228C4.6519 2.97266 4 4.54647 4 6.1875V35.0625C4 36.7035 4.6519 38.2773 5.81228 39.4377C6.97266 40.5981 8.54647 41.25 10.1875 41.25H32.875V0H10.1875Z" fill="#A2EDED"/>
<path d="M28.9356 18.8725C29.8191 18.0145 30.4265 16.9125 30.68 15.7074C30.9335 14.5022 30.8216 13.2489 30.3587 12.1077C29.8958 10.9665 29.1029 9.98944 28.0814 9.30151C27.06 8.61358 25.8565 8.24609 24.625 8.24609C23.3935 8.24609 22.19 8.61358 21.1686 9.30151C20.1471 9.98944 19.3542 10.9665 18.8913 12.1077C18.4284 13.2489 18.3165 14.5022 18.57 15.7074C18.8235 16.9125 19.4309 18.0145 20.3144 18.8725C15.715 20.11 12.25 25.0394 12.25 30.9381C12.25 31.4851 12.4673 32.0097 12.8541 32.3965C13.2409 32.7833 13.7655 33.0006 14.3125 33.0006C14.8595 33.0006 15.3841 32.7833 15.7709 32.3965C16.1577 32.0097 16.375 31.4851 16.375 30.9381C16.375 26.38 19.1594 22.6881 22.5625 22.6881H26.6875C30.0906 22.6881 32.875 26.38 32.875 30.9381V21.1C31.7598 20.0519 30.4086 19.2879 28.9356 18.8725ZM24.625 16.5006C24.2171 16.5006 23.8183 16.3796 23.4791 16.153C23.14 15.9264 22.8756 15.6043 22.7195 15.2274C22.5634 14.8505 22.5225 14.4358 22.6021 14.0357C22.6817 13.6356 22.8781 13.2681 23.1666 12.9797C23.455 12.6912 23.8225 12.4948 24.2226 12.4152C24.6227 12.3356 25.0374 12.3765 25.4143 12.5326C25.7912 12.6887 26.1133 12.9531 26.3399 13.2922C26.5665 13.6314 26.6875 14.0302 26.6875 14.4381C26.6875 14.9851 26.4702 15.5097 26.0834 15.8965C25.6966 16.2833 25.172 16.5006 24.625 16.5006Z" fill="#FF7043"/>
<path d="M10.1875 45.375C8.54647 45.375 6.97266 46.0269 5.81228 47.1873C4.6519 48.3477 4 49.9215 4 51.5625C4 53.2035 4.6519 54.7773 5.81228 55.9377C6.97266 57.0981 8.54647 57.75 10.1875 57.75H32.875V45.375H10.1875Z" fill="#455A64"/>
</svg>
