<svg width="66" height="66" viewBox="0 0 66 66" fill="none" xmlns="http://www.w3.org/2000/svg">
<path d="M55.6875 14.4375H10.3125C6.89524 14.4375 4.125 17.2077 4.125 20.625V51.5625C4.125 54.9798 6.89524 57.75 10.3125 57.75H55.6875C59.1048 57.75 61.875 54.9798 61.875 51.5625V20.625C61.875 17.2077 59.1048 14.4375 55.6875 14.4375Z" fill="#9FA8DA"/>
<path d="M61.875 20.625V24.75H6.1875H4.125V20.625C4.125 18.984 4.7769 17.4102 5.93728 16.2498C7.09766 15.0894 8.67147 14.4375 10.3125 14.4375H55.6875C57.3285 14.4375 58.9023 15.0894 60.0627 16.2498C61.2231 17.4102 61.875 18.984 61.875 20.625Z" fill="#1A237E"/>
<path d="M22.6875 18.5625C22.1405 18.5625 21.6159 18.3452 21.2291 17.9584C20.8423 17.5716 20.625 17.047 20.625 16.5V12.375H16.5V16.5C16.5 17.047 16.2827 17.5716 15.8959 17.9584C15.5091 18.3452 14.9845 18.5625 14.4375 18.5625C13.8905 18.5625 13.3659 18.3452 12.9791 17.9584C12.5923 17.5716 12.375 17.047 12.375 16.5V10.3125C12.375 9.76549 12.5923 9.24089 12.9791 8.85409C13.3659 8.4673 13.8905 8.25 14.4375 8.25H22.6875C23.2345 8.25 23.7591 8.4673 24.1459 8.85409C24.5327 9.24089 24.75 9.76549 24.75 10.3125V16.5C24.75 17.047 24.5327 17.5716 24.1459 17.9584C23.7591 18.3452 23.2345 18.5625 22.6875 18.5625Z" fill="#283593"/>
<path d="M51.5625 18.5625C51.0155 18.5625 50.4909 18.3452 50.1041 17.9584C49.7173 17.5716 49.5 17.047 49.5 16.5V12.375H45.375V16.5C45.375 17.047 45.1577 17.5716 44.7709 17.9584C44.3841 18.3452 43.8595 18.5625 43.3125 18.5625C42.7655 18.5625 42.2409 18.3452 41.8541 17.9584C41.4673 17.5716 41.25 17.047 41.25 16.5V10.3125C41.25 9.76549 41.4673 9.24089 41.8541 8.85409C42.2409 8.4673 42.7655 8.25 43.3125 8.25H51.5625C52.1095 8.25 52.6341 8.4673 53.0209 8.85409C53.4077 9.24089 53.625 9.76549 53.625 10.3125V16.5C53.625 17.047 53.4077 17.5716 53.0209 17.9584C52.6341 18.3452 52.1095 18.5625 51.5625 18.5625Z" fill="#1A237E"/>
<path d="M18.5625 43.3125H16.5C15.3609 43.3125 14.4375 44.2359 14.4375 45.375V47.4375C14.4375 48.5766 15.3609 49.5 16.5 49.5H18.5625C19.7016 49.5 20.625 48.5766 20.625 47.4375V45.375C20.625 44.2359 19.7016 43.3125 18.5625 43.3125Z" fill="#0D47A1"/>
<path d="M28.875 33H26.8125C25.6734 33 24.75 33.9234 24.75 35.0625V37.125C24.75 38.2641 25.6734 39.1875 26.8125 39.1875H28.875C30.0141 39.1875 30.9375 38.2641 30.9375 37.125V35.0625C30.9375 33.9234 30.0141 33 28.875 33Z" fill="#0D47A1"/>
<path d="M28.875 43.3125H26.8125C25.6734 43.3125 24.75 44.2359 24.75 45.375V47.4375C24.75 48.5766 25.6734 49.5 26.8125 49.5H28.875C30.0141 49.5 30.9375 48.5766 30.9375 47.4375V45.375C30.9375 44.2359 30.0141 43.3125 28.875 43.3125Z" fill="#0D47A1"/>
<path d="M39.1875 33H37.125C35.9859 33 35.0625 33.9234 35.0625 35.0625V37.125C35.0625 38.2641 35.9859 39.1875 37.125 39.1875H39.1875C40.3266 39.1875 41.25 38.2641 41.25 37.125V35.0625C41.25 33.9234 40.3266 33 39.1875 33Z" fill="#0D47A1"/>
<path d="M39.1875 43.3125H37.125C35.9859 43.3125 35.0625 44.2359 35.0625 45.375V47.4375C35.0625 48.5766 35.9859 49.5 37.125 49.5H39.1875C40.3266 49.5 41.25 48.5766 41.25 47.4375V45.375C41.25 44.2359 40.3266 43.3125 39.1875 43.3125Z" fill="#0D47A1"/>
<path d="M49.5 33H47.4375C46.2984 33 45.375 33.9234 45.375 35.0625V37.125C45.375 38.2641 46.2984 39.1875 47.4375 39.1875H49.5C50.6391 39.1875 51.5625 38.2641 51.5625 37.125V35.0625C51.5625 33.9234 50.6391 33 49.5 33Z" fill="#C2185B"/>
<path d="M49.5 43.3125H47.4375C46.2984 43.3125 45.375 44.2359 45.375 45.375V47.4375C45.375 48.5766 46.2984 49.5 47.4375 49.5H49.5C50.6391 49.5 51.5625 48.5766 51.5625 47.4375V45.375C51.5625 44.2359 50.6391 43.3125 49.5 43.3125Z" fill="#0D47A1"/>
<path d="M10.3125 14.4375C8.67147 14.4375 7.09766 15.0894 5.93728 16.2498C4.7769 17.4102 4.125 18.984 4.125 20.625V51.5625C4.125 53.2035 4.7769 54.7773 5.93728 55.9377C7.09766 57.0981 8.67147 57.75 10.3125 57.75H33V14.4375H10.3125Z" fill="#C5CAE9"/>
<path d="M10.3125 14.4375C8.67147 14.4375 7.09766 15.0894 5.93728 16.2498C4.7769 17.4102 4.125 18.984 4.125 20.625V24.75H6.1875H33V14.4375H10.3125Z" fill="#283593"/>
<path d="M22.6875 18.5625C22.1405 18.5625 21.6159 18.3452 21.2291 17.9584C20.8423 17.5716 20.625 17.047 20.625 16.5V12.375H16.5V16.5C16.5 17.047 16.2827 17.5716 15.8959 17.9584C15.5091 18.3452 14.9845 18.5625 14.4375 18.5625C13.8905 18.5625 13.3659 18.3452 12.9791 17.9584C12.5923 17.5716 12.375 17.047 12.375 16.5V10.3125C12.375 9.76549 12.5923 9.24089 12.9791 8.85409C13.3659 8.4673 13.8905 8.25 14.4375 8.25H22.6875C23.2345 8.25 23.7591 8.4673 24.1459 8.85409C24.5327 9.24089 24.75 9.76549 24.75 10.3125V16.5C24.75 17.047 24.5327 17.5716 24.1459 17.9584C23.7591 18.3452 23.2345 18.5625 22.6875 18.5625Z" fill="#283593"/>
<path d="M18.5625 43.3125H16.5C15.3609 43.3125 14.4375 44.2359 14.4375 45.375V47.4375C14.4375 48.5766 15.3609 49.5 16.5 49.5H18.5625C19.7016 49.5 20.625 48.5766 20.625 47.4375V45.375C20.625 44.2359 19.7016 43.3125 18.5625 43.3125Z" fill="#EC407A"/>
<path d="M28.875 33H26.8125C25.6734 33 24.75 33.9234 24.75 35.0625V37.125C24.75 38.2641 25.6734 39.1875 26.8125 39.1875H28.875C30.0141 39.1875 30.9375 38.2641 30.9375 37.125V35.0625C30.9375 33.9234 30.0141 33 28.875 33Z" fill="#1565C0"/>
<path d="M28.875 43.3125H26.8125C25.6734 43.3125 24.75 44.2359 24.75 45.375V47.4375C24.75 48.5766 25.6734 49.5 26.8125 49.5H28.875C30.0141 49.5 30.9375 48.5766 30.9375 47.4375V45.375C30.9375 44.2359 30.0141 43.3125 28.875 43.3125Z" fill="#1565C0"/>
</svg>
