<svg width="66" height="60" viewBox="0 0 66 60" fill="none" xmlns="http://www.w3.org/2000/svg">
<ellipse cx="5.92296" cy="26.1609" rx="5.92296" ry="7.89727" fill="#FE7346"/>
<path d="M25.4551 41.9486C25.4551 41.1589 25.4551 38.7404 25.2083 38H22V44.6633C23.4807 43.8407 25.4551 42.7384 25.4551 41.9486Z" fill="white"/>
<path d="M25.1719 38.0068V14.8086H8.63698C6.66266 14.8086 5.6755 17.2765 5.42871 18.5104V34.5518C5.42871 37.1184 7.56756 37.9246 8.63698 38.0068H25.1719Z" fill="#FF2F00"/>
<circle cx="60.7102" cy="26.6526" r="4.9358" fill="#FC7346"/>
<path d="M55.2812 4.19531C43.6327 12.0926 30.3554 14.5605 25.1729 14.8073V38.0055C45.3109 39.9798 53.6359 46.7254 55.2812 49.8514V4.19531Z" fill="white"/>
<path d="M15.3012 59.9702L7.89746 38.0059H21.9645V44.6692C22.4581 46.9726 23.8401 52.369 25.4195 55.5279C25.617 58.4894 23.1984 59.7234 21.9645 59.9702H15.3012Z" fill="#FC7346"/>
<path d="M57.0083 0C53.8494 0 53.3887 3.29053 53.5533 4.9358V50.0983C53.5533 51.3323 55.034 53.5534 57.0083 53.5534C58.9826 53.5534 60.628 51.1678 60.7102 50.0983V4.9358C60.7925 3.29053 60.1672 0 57.0083 0Z" fill="#FF2F00"/>
<path fill-rule="evenodd" clip-rule="evenodd" d="M65.6029 26H25.1725V38H25.4999L25.5854 38.0464C41.5821 39.6796 50.0261 44.3354 53.5535 47.7051V50.0983C53.5535 51.3323 55.0343 53.5534 57.0086 53.5534C58.9829 53.5534 60.6282 51.1678 60.7105 50.0983V31.5893C63.4362 31.589 65.6458 29.3793 65.6458 26.6535C65.6458 26.4319 65.6311 26.2138 65.6029 26ZM25.1721 38V26H0.00112152C0.00107193 26.0033 0.00102234 26.0066 0.000976562 26.01L0.262123 28.4909C0.961334 31.5133 2.98471 33.7612 5.42896 34.0303V34.5511C5.42896 37.0641 7.4794 37.8894 8.56886 38H25.1721Z" fill="black" fill-opacity="0.17"/>
<path fill-rule="evenodd" clip-rule="evenodd" d="M15.4787 38.0059L20.8779 59.9702H15.3012L7.89746 38.0059H15.4787Z" fill="black" fill-opacity="0.17"/>
</svg>
